<?xml version="1.0" encoding="utf-8"?>
<!-- Uploaded to: SVG Repo, www.svgrepo.com, Generator: SVG Repo Mixer Tools -->
<svg fill="#000000" height="800px" width="800px" version="1.1" id="pie" xmlns="http://www.w3.org/2000/svg" xmlns:xlink="http://www.w3.org/1999/xlink" 
	 viewBox="0 0 256 243" xml:space="preserve">
<path d="M153.7,43.4c1.4-1.9,2.4-3.2,2.4-6.2c0-3-1.1-4.3-2.4-6.2l-0.3-0.4c-0.9-1.2-0.7-3,0.6-3.9c1.2-0.9,3-0.7,3.9,0.6l0.3,0.4
	c1.6,2.1,3.5,4.7,3.5,9.5s-2,7.5-3.5,9.5c-1.4,1.9-2.4,3.2-2.4,6.2c0,3,1.1,4.3,2.4,6.2c0.5,0.7,1.1,1.4,1.6,2.2
	c0.8,1.3,0.4,3-0.9,3.9c-0.5,0.3-1,0.4-1.5,0.4c-0.9,0-1.8-0.4-2.4-1.3c-0.4-0.6-0.8-1.1-1.2-1.7c-1.6-2.1-3.5-4.7-3.5-9.5
	S152.1,45.5,153.7,43.4z M120.4,47.7c0,7,2.7,10.5,5.2,13.7c0.7,0.9,1.4,1.8,2,2.8c0.6,0.9,1.4,1.3,2.4,1.3c0.5,0,1-0.1,1.5-0.4
	c1.3-0.8,1.7-2.6,0.9-3.9c-0.7-1.2-1.6-2.2-2.3-3.2c-2.1-2.8-4-5.2-4-10.3s1.9-7.5,4-10.3c2.4-3.2,5.2-6.7,5.2-13.7
	c0-6.9-2.7-10.5-5.2-13.7l-0.4-0.6c-0.9-1.2-2.7-1.5-3.9-0.6c-1.2,0.9-1.5,2.7-0.6,3.9l0.4,0.6c2.1,2.8,4,5.2,4,10.3
	c0,5-1.9,7.5-4,10.3C123.1,37.2,120.4,40.8,120.4,47.7z M93.8,53c0,4.9,2,7.5,3.5,9.5c0.4,0.6,0.9,1.2,1.2,1.7
	c0.6,0.9,1.4,1.3,2.4,1.3c0.5,0,1-0.1,1.5-0.4c1.3-0.8,1.7-2.6,0.9-3.9c-0.5-0.8-1.1-1.5-1.6-2.2c-1.4-1.9-2.4-3.2-2.4-6.2
	c0-3,1-4.3,2.4-6.2c1.6-2.1,3.5-4.7,3.5-9.5s-2-7.5-3.5-9.5l-0.3-0.4c-0.9-1.2-2.7-1.5-3.9-0.6s-1.5,2.7-0.6,3.9l0.3,0.4
	c1.4,1.9,2.4,3.2,2.4,6.2c0,3-1,4.3-2.4,6.2C95.8,45.5,93.8,48.1,93.8,53z M195,189.1c-10.3,0-17.6-4.3-22.3-8.3
	c-4.6,3.9-11.9,8.3-22.3,8.3c-10.3,0-17.6-4.3-22.2-8.2c-4.6,3.9-11.9,8.2-22.2,8.2c-10.3,0-17.7-4.3-22.3-8.3
	c-4.6,3.9-11.9,8.3-22.3,8.3c-10.5,0-17.8-4.4-22.4-8.4c-4.6,3.6-11.2,6.9-20,8.1l38.2,47.8h71h71l38.2-47.8
	c-8.8-1.1-15.4-4.4-20-8.1C212.8,184.7,205.5,189.1,195,189.1z M240.2,175.6c-9.3-0.9-14.8-5.3-17.8-8.7l-5.1-6l-5.1,6
	c-3.5,4.1-8.6,8.7-17.1,8.7c-8.5,0-13.6-4.7-17.1-8.7l-5.1-6l-5.1,6c-3.5,4.1-8.6,8.7-17.1,8.7c-8.5,0-13.6-4.6-17.1-8.7l-5.1-5.9
	l-5.1,5.9c-3.5,4.1-8.6,8.7-17.1,8.7c-8.5,0-13.6-4.7-17.1-8.7l-5.1-6l-5.1,6c-3.5,4.1-8.6,8.7-17.1,8.7c-8.5,0-13.6-4.6-17.1-8.7
	l-5.1-6l-5.1,6c-3,3.5-8.5,7.8-17.8,8.7c-10.1,0.1-15.3-7.8-6.6-25.4C29.7,111.4,87,83.7,128.2,83.7h0c41.3,0,98.5,27.7,118.5,66.4
	C255.5,167.8,250.3,175.7,240.2,175.6z M97.3,115.5c0-4.7-3.8-8.5-8.5-8.5c-4.7,0-8.5,3.8-8.5,8.5c0,4.7,3.8,8.5,8.5,8.5
	C93.5,124,97.3,120.2,97.3,115.5z M136.8,123.1c0-4.7-3.8-8.5-8.5-8.5s-8.5,3.8-8.5,8.5c0,4.7,3.8,8.5,8.5,8.5
	S136.8,127.8,136.8,123.1z M176.2,115.5c0-4.7-3.8-8.5-8.5-8.5c-4.7,0-8.5,3.8-8.5,8.5c0,4.7,3.8,8.5,8.5,8.5
	C172.4,124,176.2,120.2,176.2,115.5z"/>
</svg>