<?xml version="1.0" encoding="iso-8859-1"?>
<!-- Uploaded to: SVG Repo, www.svgrepo.com, Generator: SVG Repo Mixer Tools -->
<svg version="1.1" id="Layer_1" xmlns="http://www.w3.org/2000/svg" xmlns:xlink="http://www.w3.org/1999/xlink" 
	 viewBox="0 0 512 512" xml:space="preserve">
<circle style="fill:#CFDBE6;" cx="256" cy="256" r="256"/>
<path style="fill:#B8C9D9;" d="M502.367,325.792l-183.57-183.57c0,0-3.174,4.932-5.237,8.14L255.8,93.306l-57.551-7.685
	l-18.675,18.675v70.832l-59.888,223.094l112.681,112.681C240.15,511.616,248.03,512,256,512
	C373.189,512,471.985,433.255,502.367,325.792z"/>
<path style="fill:#31BAFD;" d="M219.241,206.869c-27.805,0-50.424-22.621-50.424-50.424V128c0-27.803,22.619-50.424,50.424-50.424
	s50.424,22.621,50.424,50.424v28.444C269.665,184.248,247.046,206.869,219.241,206.869z M219.241,93.091
	c-19.249,0-34.909,15.66-34.909,34.909v28.444c0,19.249,15.66,34.909,34.909,34.909s34.909-15.66,34.909-34.909V128
	C254.15,108.751,238.49,93.091,219.241,93.091z"/>
<path style="fill:#2B9ED8;" d="M219.241,77.576c-0.295,0-0.584,0.017-0.879,0.022v15.538c0.295-0.007,0.583-0.045,0.879-0.045
	c19.249,0,34.909,15.66,34.909,34.909v28.444c0,19.249-15.66,34.909-34.909,34.909c-0.296,0-0.584-0.036-0.879-0.045v15.538
	c0.293,0.005,0.584,0.022,0.879,0.022c27.805,0,50.424-22.621,50.424-50.424V128C269.665,100.197,247.046,77.576,219.241,77.576z"/>
<rect x="119.691" y="142.222" style="fill:#324A5E;" width="199.111" height="256"/>
<rect x="218.367" y="142.222" style="fill:#2B3B4E;" width="100.435" height="256"/>
<path style="fill:#FD8469;" d="M327.111,257.867c-19.487,0-35.34-15.853-35.34-35.34v-18.389c0-19.487,15.853-35.34,35.34-35.34
	s35.34,15.853,35.34,35.34v18.389C362.451,242.014,346.598,257.867,327.111,257.867z M327.111,184.315
	c-10.931,0-19.825,8.894-19.825,19.825v18.389c0,10.931,8.894,19.825,19.825,19.825c10.931,0,19.825-8.894,19.825-19.825V204.14
	C346.936,193.207,338.042,184.315,327.111,184.315z"/>
<path style="fill:#FC6F58;" d="M327.111,168.8c-0.34,0-0.669,0.041-1.005,0.052v15.515c0.334-0.017,0.665-0.052,1.005-0.052
	c10.931,0,19.825,8.894,19.825,19.825v18.389c0,10.931-8.894,19.825-19.825,19.825c-0.34,0-0.671-0.034-1.005-0.052v15.515
	c0.336,0.01,0.665,0.052,1.005,0.052c19.487,0,35.34-15.853,35.34-35.34V204.14C362.451,184.653,346.598,168.8,327.111,168.8z"/>
<rect x="261.913" y="222.97" style="fill:#F1543F;" width="136.309" height="175.269"/>
<rect x="326.111" y="222.97" style="fill:#C1321F;" width="72.116" height="175.269"/>
</svg>